<?xml version="1.0"?>
<svg xmlns="http://www.w3.org/2000/svg" id="Outline" viewBox="0 0 512 512" width="512" height="512"><path d="M312,248H280a8,8,0,0,0-8,8v80a8,8,0,0,0,8,8h32a8,8,0,0,0,8-8V256A8,8,0,0,0,312,248Zm-8,80H288V264h16Z"/><path d="M376,248H344a8,8,0,0,0-8,8v80a8,8,0,0,0,8,8h32a8,8,0,0,0,8-8V256A8,8,0,0,0,376,248Zm-8,80H352V264h16Z"/><path d="M440,248H408a8,8,0,0,0-8,8v80a8,8,0,0,0,8,8h32a8,8,0,0,0,8-8V256A8,8,0,0,0,440,248Zm-8,80H416V264h16Z"/><path d="M312,368H280a8,8,0,0,0-8,8v80a8,8,0,0,0,8,8h32a8,8,0,0,0,8-8V376A8,8,0,0,0,312,368Zm-8,80H288V384h16Z"/><path d="M376,368H344a8,8,0,0,0-8,8v80a8,8,0,0,0,8,8h32a8,8,0,0,0,8-8V376A8,8,0,0,0,376,368Zm-8,80H352V384h16Z"/><path d="M440,368H408a8,8,0,0,0-8,8v80a8,8,0,0,0,8,8h32a8,8,0,0,0,8-8V376A8,8,0,0,0,440,368Zm-8,80H416V384h16Z"/><path d="M112,144a24,24,0,1,0,24-24A24.027,24.027,0,0,0,112,144Zm32,0a8,8,0,1,1-8-8A8.009,8.009,0,0,1,144,144Z"/><path d="M88,344a8,8,0,0,0,8-8V256a8,8,0,0,0-8-8H56a8,8,0,0,0-8,8v80a8,8,0,0,0,8,8ZM64,264H80v64H64Z"/><path d="M120,344h32a8,8,0,0,0,8-8V256a8,8,0,0,0-8-8H120a8,8,0,0,0-8,8v80A8,8,0,0,0,120,344Zm8-80h16v64H128Z"/><path d="M184,344h32a8,8,0,0,0,8-8V256a8,8,0,0,0-8-8H184a8,8,0,0,0-8,8v80A8,8,0,0,0,184,344Zm8-80h16v64H192Z"/><path d="M430.247,107A8,8,0,0,0,424,104H171.313L144,76.687V64h40a8,8,0,0,0,8-8V24a8,8,0,0,0-8-8H136a8,8,0,0,0-8,8V76.687L18.347,186.339A7.976,7.976,0,0,0,16,192V488a8,8,0,0,0,8,8H472a8,8,0,0,0,8-8V200h8a8,8,0,0,0,6.247-13ZM144,32h32V48H144Zm276.155,88,51.2,64H251.313l-64-64ZM464,216H256V200H464ZM32,200H240v16H32Zm11.313-16L136,91.313,228.687,184ZM32,232H240V480H184V408h24a8,8,0,0,0,8-8V368a8,8,0,0,0-8-8H64a8,8,0,0,0-8,8v32a8,8,0,0,0,8,8H88v72H32ZM72,392V376H200v16Zm56,16v72H104V408Zm16,0h24v72H144Zm112,72V232H464V480Z"/></svg>
